<svg viewBox="0 0 1024 1024" fill="none" xmlns="http://www.w3.org/2000/svg">
    <g filter="url(#filter0_d_166_1759)">
        <path d="M512.34 13.0001C456.475 12.9697 401.152 24.1332 349.534 45.8518C297.916 67.5704 251.015 99.4186 211.513 139.575C172.01 179.732 140.681 227.409 119.316 279.882C97.9515 332.355 86.9702 388.594 87.0001 445.384C86.9966 536.86 115.547 625.977 168.542 699.907C221.537 773.836 296.242 828.765 381.903 856.783C406.476 865.204 428.534 879.848 445.998 899.336C463.461 918.823 475.753 942.511 481.716 968.166L487.614 991.227C488.72 997.006 491.769 1002.21 496.239 1005.96C500.709 1009.7 506.321 1011.75 512.113 1011.75C517.866 1011.7 523.425 1009.63 527.848 1005.89C532.272 1002.15 535.288 996.968 536.386 991.227L542.284 968.166C548.247 942.511 560.539 918.823 578.002 899.336C595.466 879.848 617.524 865.204 642.097 856.783C727.758 828.765 802.463 773.836 855.458 699.907C908.453 625.977 937.003 536.86 937 445.384C937 330.829 892.281 220.955 812.661 139.887C733.042 58.8191 625.03 13.1834 512.34 13.0001Z" fill="#FF5C00"/>
    </g>
    <path fill-rule="evenodd" clip-rule="evenodd" d="M499.093 258.564C507.205 253.812 517.595 253.812 525.707 258.564L731.418 379.081C742.901 385.808 746.252 399.783 738.903 410.295C731.554 420.806 716.288 423.874 704.805 417.147L685.198 405.66V586.422C685.198 619.701 655.726 646.68 619.37 646.68H405.43C369.074 646.68 339.602 619.701 339.602 586.422V405.66L319.995 417.147C308.512 423.874 293.246 420.806 285.897 410.295C278.548 399.783 281.899 385.808 293.382 379.081L499.093 258.564ZM430.115 477.203C430.115 488.338 434.914 498.446 442.722 505.891L500.61 560.28C507.071 566.35 517.728 566.349 524.187 560.278L580.907 506.967C589.403 499.436 594.685 488.884 594.685 477.203C594.685 454.323 574.423 435.775 549.428 435.775C534.122 435.775 520.59 451.205 512.4 461.852C504.21 451.205 490.678 435.775 475.372 435.775C450.377 435.775 430.115 454.323 430.115 477.203Z" fill="#F3F3F3"/>
    <defs>
        <filter id="filter0_d_166_1759" x="82" y="9" width="860" height="1008.75" filterUnits="userSpaceOnUse" color-interpolation-filters="sRGB">
            <feFlood flood-opacity="0" result="BackgroundImageFix"/>
            <feColorMatrix in="SourceAlpha" type="matrix" values="0 0 0 0 0 0 0 0 0 0 0 0 0 0 0 0 0 0 127 0" result="hardAlpha"/>
            <feOffset dy="1"/>
            <feGaussianBlur stdDeviation="2.5"/>
            <feComposite in2="hardAlpha" operator="out"/>
            <feColorMatrix type="matrix" values="0 0 0 0 0 0 0 0 0 0 0 0 0 0 0 0 0 0 0.1 0"/>
            <feBlend mode="normal" in2="BackgroundImageFix" result="effect1_dropShadow_166_1759"/>
            <feBlend mode="normal" in="SourceGraphic" in2="effect1_dropShadow_166_1759" result="shape"/>
        </filter>
    </defs>
</svg>
